<svg width="124" height="124" viewBox="0 0 124 124" fill="none" xmlns="http://www.w3.org/2000/svg">
<path d="M108.485 57.5841C111.404 74.7151 107.015 86.6371 99.316 94.4239C95.4994 98.2838 89.7997 100.468 83.3613 101.668C76.9409 102.864 69.9525 103.053 63.7048 103.053C39.5424 103.053 19.9548 83.4652 19.9548 59.3027C19.9548 35.1403 39.5424 15.5527 63.7048 15.5527C87.6874 15.5527 101.533 33.8053 108.485 57.5841Z" fill="#A45420" stroke="#A45420" stroke-width="2.5"/>
<path d="M70.2915 12.0538C62.2531 11.0455 50.1391 12.5228 42.0872 16.9078C38.207 19.021 34.8396 21.365 31.9875 23.7513C31.5704 23.4682 31.1448 23.1956 30.7122 22.9409C28.9796 21.9211 27.2099 21.1467 25.789 20.6262C25.0779 20.3657 24.4459 20.1658 23.9411 20.0295C23.4805 19.9051 23.018 19.8027 22.7049 19.8027C22.2991 19.8027 21.9543 19.9563 21.6949 20.1238L20.5154 23.3087C19.9719 24.3508 19.4961 25.5018 19.2048 26.3027C19.2048 26.3027 19.2718 26.3139 19.3946 26.3351L19.0413 27.2892L19.0563 27.2918L19.1055 27.3001C19.1489 27.3075 19.2135 27.3185 19.2968 27.333C19.4634 27.3618 19.7048 27.4043 20.0026 27.4585C20.5986 27.5668 21.4185 27.7215 22.3148 27.907C23.7853 28.2112 25.3989 28.5859 26.5744 28.9623C23.3344 32.5848 21.2681 36.0453 20.4878 38.6464C18.9461 43.7852 16.9549 57.5043 16.9548 66.8028C16.9548 70.6331 17.7155 75.8357 19.0223 79.3746C19.3519 80.2672 19.7298 81.0916 20.1616 81.7757C20.5831 82.4432 21.1167 83.0746 21.798 83.4546C22.545 83.8712 23.4067 83.9449 24.2528 83.5612C25.0218 83.2126 25.6659 82.5376 26.225 81.6989C28.247 78.666 30.2743 75.2546 32.4668 71.5427L32.8758 70.8501C34.958 67.3235 37.2028 63.5218 39.7616 59.4703C41.2803 57.0657 42.3399 55.1806 43.2386 53.5563C43.3373 53.3779 43.4338 53.2031 43.5285 53.0316C44.3 51.6344 44.9542 50.4497 45.7231 49.2467C47.4265 46.5818 49.7216 43.786 55.0657 38.7091C60.7179 33.3395 66.5072 29.5939 71.3526 26.7033C72.3694 26.0967 73.3606 25.5186 74.3023 24.9693C75.5751 24.227 76.7579 23.5371 77.7903 22.9015C79.585 21.7966 81.1261 20.7386 82.1262 19.6475C82.7014 19.0199 83.0975 18.2653 83.0611 17.4096C83.0249 16.5582 82.5725 15.8923 82.0659 15.4133C81.0991 14.4991 79.5171 13.8657 78.0103 13.4138C75.0111 12.5143 71.3807 12.0773 70.2915 12.0538Z" fill="#4B2C16"/>
<path d="M81.7049 24.3028C84.1049 21.1028 89.0383 20.9694 91.2049 21.3028L98 23.5L107.205 35.8027L109.205 46.8027L107.705 61.8027L102.205 71.8027C99.2048 73.3027 93.1048 76.3027 92.7048 76.3027C92.2048 76.3027 80.7048 75.3027 79.7048 75.3027C78.7048 75.3027 71.7049 65.8027 70.7049 64.3027C69.7049 62.8027 70.7049 53.8027 70.7049 52.8027C70.7049 51.8027 74.7049 47.8027 76.2049 46.8027C77.4049 46.0027 78.0383 44.1361 78.2049 43.3027C77.8716 41.6361 77.2049 37.6027 77.2049 34.8027C77.2049 31.3027 78.7049 28.3028 81.7049 24.3028Z" fill="#E3993B"/>
<path d="M103.705 41.8027C100.757 24 90.5381 24.8027 86.7047 21.3027C88.7047 21.9694 98.1047 23.6027 99.7047 24.8027C101.705 26.3027 108.205 39.8027 108.705 40.8027C109.205 41.8027 110.705 59.3027 107.205 65.3027C103.705 71.3027 96.7047 77.3027 91.7047 76.8027C86.7047 76.3027 76.7047 73.8027 74.7047 70.8027C73.1047 68.4027 70.2046 59.8027 71.7047 62.8027C74.2047 67.8027 88.7047 71.3027 95.2047 66.3027C101.705 61.3027 105.489 52.5762 103.705 41.8027Z" fill="#BF7618"/>
<path d="M97.9999 35C96.4999 30.5 92.4999 25.5 87.4998 23.5C86.8332 23.5 87.9999 24 90.9998 27C94.758 30.7584 95.4998 38 93.4998 43.5C91.996 47.6351 90.3331 47.5 88.9998 48L91.9998 53C92.4997 52 92.9997 52.5 94.9998 50.5C97.2637 48.2362 100.167 41.5 97.9999 35Z" fill="#BF7618"/>
<path d="M85.4999 24.5C85.9999 25 88.9999 27 90.4999 31.5C92.4557 37.3673 88.354 46.2346 84.9999 46.2346C84.3447 46.2346 84.3334 45.8768 84.4036 45.7239L79.9999 45.2346C80.9999 45.2346 82.1999 44.0346 82.9999 43.2346C83.9999 42.2346 86.151 39.1301 86.9999 35.7346C87.4999 33.7346 87.4999 30.7346 86.9999 28.7346C86.5999 27.1346 85.4999 25.2346 84.9999 24.7346C84.4999 24.2346 84.9999 24 85.4999 24.5Z" fill="#BF7618"/>
<path d="M81.997 51C82.0236 51.0301 80.4746 51.6395 80.1967 53.598C80.1636 53.8333 80.0245 55.6182 80.9999 56.9999C81.7152 58.0139 84.2958 59.1634 84.2958 59.1634C84.2958 59.1634 87.032 60.2112 88.5819 59.6633C89.5592 59.3179 90.8159 58.1187 90.8159 58.1187C90.8159 58.1187 89.9999 59.9999 88.9999 60.4999C88.1123 60.9437 87.4155 60.9999 86.9999 60.9999C84.1813 60.8662 83.1857 60.2893 82.32 59.79C81.9216 59.5621 79.1079 57.9404 78.9999 55.2854C78.8886 52.5562 81.9585 50.9572 81.997 51Z" fill="#BF7618"/>
<path d="M30.2047 42.8027C30.2047 46.6687 26.623 49.8027 22.2047 49.8027C17.7865 49.8027 14.2047 46.6687 14.2047 42.8027C14.2047 38.9367 17.7865 35.8027 22.2047 35.8027C26.623 35.8027 30.2047 38.9367 30.2047 42.8027Z" fill="#CF811D"/>
<path fill-rule="evenodd" clip-rule="evenodd" d="M15.0614 36.231C17.9104 34.5215 20.8877 34.641 22.8118 35.71C23.4153 36.0453 23.6327 36.8063 23.2975 37.4098C22.9622 38.0132 22.2012 38.2307 21.5977 37.8954C20.5219 37.2977 18.4989 37.0839 16.3477 38.3747C15.4515 38.9125 14.7368 39.9627 14.4201 41.2821C14.1057 42.5922 14.2191 44.0367 14.8227 45.2439C15.4006 46.3995 16.6577 47.2375 18.1413 47.6618C19.6613 48.0966 21.0352 47.9901 21.6457 47.6849C22.2632 47.3761 23.014 47.6264 23.3227 48.2439C23.6315 48.8614 23.3812 49.6122 22.7638 49.9209C21.3743 50.6157 19.2887 50.5902 17.4539 50.0655C15.5828 49.5303 13.5898 48.3683 12.5867 46.3619C11.6903 44.5692 11.5536 42.5136 11.9892 40.6987C12.4225 38.8931 13.4578 37.1933 15.0614 36.231Z" fill="#CF811D"/>
<path fill-rule="evenodd" clip-rule="evenodd" d="M99.1165 27.3843C94.476 22.7476 89.4951 22.413 85.3822 23.6984L85.3821 23.6984C84.3142 24.0321 82.5095 25.1287 80.9007 26.9563C79.3133 28.7596 77.999 31.1823 77.7551 34.1092C77.3834 38.5694 78.6692 42.0143 79.6022 43.8956C81.2718 43.649 83.1624 43.755 85.3125 44.2925C89.8023 45.415 93.0843 49.1582 94.3805 52.9787C95.0328 54.9012 95.2179 56.9417 94.7238 58.7691C94.2198 60.6328 93.017 62.2246 91.0331 63.1403C90.4063 63.4295 89.6636 63.1559 89.3743 62.5291C89.0851 61.9023 89.3587 61.1596 89.9855 60.8703C91.2516 60.286 91.9863 59.3154 92.3104 58.1165C92.6444 56.8814 92.5483 55.3594 92.0131 53.7819C90.9343 50.6024 88.2163 47.5955 84.7061 46.7179C80.9936 45.7898 78.4989 46.3959 76.6537 47.6611C74.7393 48.9739 73.356 51.1069 72.1274 53.5642C71.2666 55.286 71.1366 58.2433 72.0203 61.6078C72.8912 64.9236 74.6935 68.4135 77.3938 71.1167C79.1842 72.909 82.451 74.6704 86.2118 75.4973C89.9586 76.3212 94.0161 76.1787 97.4311 74.397C108.175 68.7916 108.259 57.1343 108.259 49.5052C108.259 42.299 105.378 33.6408 99.1165 27.3843ZM77.1499 44.5642C76.4704 44.8434 75.8351 45.1912 75.2399 45.5993C72.7793 47.2866 71.1626 49.9035 69.8913 52.4462C68.6427 54.9435 68.6466 58.6044 69.6023 62.2429C70.5707 65.9301 72.5731 69.8282 75.6251 72.8835C77.8252 75.0861 81.5583 77.0338 85.6749 77.939C89.8053 78.8472 94.5025 78.7448 98.5875 76.6135C110.761 70.2621 110.76 57.0564 110.759 49.6556L110.759 49.5052C110.759 41.7115 107.665 32.3922 100.884 25.6159C95.5054 20.2421 89.5233 19.785 84.6365 21.3122M77.1499 44.5642C76.1174 42.348 74.8701 38.6253 75.2637 33.9016C75.5615 30.3285 77.1638 27.4178 79.0242 25.3044C80.8633 23.2152 83.0377 21.8118 84.6364 21.3122" fill="#E3993B"/>
<path d="M46.7048 78.8027C45.1048 78.8027 43.7048 74.136 43.2048 71.8027L44.2049 71.3027C45.7049 71.3027 51.7718 69.7358 54.2049 67.3027C59.2048 62.3027 60.0873 53.7153 59.2048 49.3027C58.2049 44.3027 54.7048 45.3027 51.2049 44.3027C48.4049 43.5027 38.2048 42.1361 33.2048 42.8027L33.2049 38.3027C33.2049 34.3027 29.7048 30.8027 24.7048 31.8027C22.0646 32.3308 19.2049 34.3027 18.2049 37.3027C16.0382 43.8027 23.2049 45.3027 20.7049 46.3028C19.0311 46.9723 16.7048 51.3027 15.2048 60.8027C13.7048 70.3027 16.9949 82.3717 24.7048 92.8028C33.2049 104.303 52 111.5 62 111.5C73 111.5 89.7048 104.803 93.7048 101.303C97.7048 97.8027 98.7048 95.3028 97.2048 92.8028C95.7048 90.3028 92.7048 89.8028 88.7048 92.8028C84.7049 95.8027 71.7052 95.8027 68.705 95.8027H68.7048C65.7048 95.8027 59.7048 92.8028 59.2048 90.3028C58.7048 87.8028 61.125 87.4054 64.7048 82.8027C68.2048 78.3027 69.4048 74.3027 65.2048 71.3027C62.3279 69.2477 57.2048 70.7028 54.2049 74.3027C51.7049 77.3027 48.7048 78.8027 46.7048 78.8027Z" fill="#E2993C"/>
<path d="M18 64.5C18 64.5 15 62.6667 14 61.5C14.3333 64.3333 14.3292 69.4223 15 73C16.5 81 20.5 88.5 25 94.5C28 98.5 30.7 99.8 29.5 99C28 98 21.5 85.5 20 80C18.8 75.6 18.5 67.6667 19 65L18 64.5Z" fill="#BF7618"/>
<path d="M24 67.5L21.5 66C21.0002 67.4994 21.0001 70.4976 21 72.997V73C20.9999 74.6492 21.1667 79.8333 22.5 83C22 81.1667 22.1 75.4 22.5 73C22.9999 70 23.3333 69.3333 24 67.5Z" fill="#BF7618"/>
<path d="M67.2048 77.3027C67.2048 80.3403 65.6378 82.8027 63.7048 82.8027C61.7718 82.8027 60.2048 80.3403 60.2048 77.3027C60.2048 74.2652 61.7718 71.8027 63.7048 71.8027C65.6378 71.8027 67.2048 74.2652 67.2048 77.3027Z" fill="#EBDEC3"/>
<path d="M97.2048 95.8027C97.2048 98.5642 95.414 100.803 93.2048 100.803C90.9957 100.803 89.2048 98.5642 89.2048 95.8027C89.2048 93.0413 90.9957 90.8027 93.2048 90.8027C95.414 90.8027 97.2048 93.0413 97.2048 95.8027Z" fill="#EBDEC3"/>
<path fill-rule="evenodd" clip-rule="evenodd" d="M31.9549 38.3026C31.9549 35.0702 29.1558 32.1872 24.95 33.0284C22.652 33.488 20.22 35.2101 19.3907 37.6979C18.6053 40.0541 19.0617 41.5344 19.704 42.5331C20.0457 43.0644 20.4696 43.5028 20.8945 43.8836C21.092 44.0606 21.2813 44.218 21.4676 44.3729C21.4831 44.3858 21.4986 44.3986 21.5141 44.4115C21.6995 44.5657 21.9154 44.7455 22.0887 44.9188L22.9725 45.8026L21.6452 47.1301C21.6216 47.1613 21.5871 47.2075 21.5429 47.2687C21.4429 47.4068 21.2933 47.6211 21.1066 47.9103C20.733 48.489 20.2112 49.3674 19.641 50.5376C18.501 52.8778 17.1679 56.3844 16.4395 60.9976C15.0031 70.0948 18.1511 81.8331 25.71 92.0597C29.7845 97.5722 36.3222 101.959 43.1471 104.972C49.9733 107.985 56.9242 109.553 61.7048 109.553C67.0218 109.553 73.8828 108.093 79.9528 106.173C82.9765 105.217 85.7728 104.156 88.0484 103.125C90.3564 102.079 92.0273 101.11 92.8817 100.362C94.8401 98.6483 95.9102 97.3047 96.3604 96.2044C96.7673 95.2097 96.689 94.3726 96.1329 93.4458C95.6412 92.6261 94.9307 92.2566 93.8835 92.3353C92.7338 92.4216 91.161 93.0667 89.25 94.4999C87.0153 96.1759 83.7837 97.2213 80.374 97.7359C76.9391 98.2544 73.1871 98.2549 69.8099 97.7354C68.1406 97.4786 65.4304 96.4896 63.1007 95.2764C61.9245 94.664 60.7859 93.9642 59.8905 93.2261C59.0528 92.5357 58.1947 91.626 57.9791 90.5478C57.8225 89.765 57.8258 89.0404 58.0422 88.3176C58.2515 87.6184 58.6339 87.0124 59.08 86.4299C59.4481 85.9491 59.9116 85.4201 60.427 84.8318C60.5257 84.7192 60.6263 84.6043 60.7285 84.4873C61.3783 83.7429 62.1392 82.8563 63.0133 81.7325C64.7714 79.472 66.0294 77.5404 66.4216 75.8972C66.6085 75.1141 66.5826 74.4561 66.3612 73.8738C66.1389 73.2889 65.6734 72.6599 64.7734 72.0171C63.8382 71.3491 62.4787 71.3068 60.7868 72.029C59.1146 72.7427 57.3614 74.1188 55.9603 75.8001C53.1425 79.1815 48.9288 80.0526 46.7048 80.0526C45.6888 80.0526 44.9764 79.338 44.562 78.7985C44.1028 78.2007 43.7132 77.4316 43.3898 76.6617C42.7374 75.1082 42.2425 73.2776 41.9826 72.0645L41.6921 70.7091L43.0701 70.5599L43.0711 70.5598L43.0759 70.5593L43.0971 70.5569L43.1831 70.5471C43.2587 70.5382 43.3696 70.525 43.5078 70.5074C43.7846 70.4723 44.1687 70.4205 44.5973 70.3537C45.4789 70.2162 46.4623 70.0282 47.1047 69.8141C47.3777 69.723 47.6902 69.6359 48.0362 69.5395C49.7928 69.0498 52.4127 68.3194 55.1161 65.616C56.5635 64.1686 57.5418 61.3248 58.0085 58.0663C58.467 54.8642 58.3868 51.5863 57.9791 49.5478C57.8363 48.8336 57.3435 48.239 56.1855 47.6779C54.9966 47.1019 53.336 46.6767 51.2353 46.2216C49.4794 45.8411 46.3074 45.4708 42.8694 45.3227C39.4275 45.1745 35.8374 45.2545 33.2236 45.7297L31.6434 46.0171M34.3335 43.0393C34.3393 42.9174 34.3453 42.7898 34.3512 42.6569C34.4029 41.4963 34.4549 39.9273 34.4549 38.3026C34.4549 33.535 30.2538 29.4181 24.4597 30.5769C21.477 31.1735 18.1897 33.3952 17.019 36.9074C15.9985 39.9688 16.5422 42.2385 17.6013 43.8854C18.1103 44.6769 18.7125 45.2851 19.226 45.7454C19.2953 45.8075 19.3636 45.8674 19.4303 45.9251C19.316 46.0868 19.1726 46.2968 19.0062 46.5544C18.5829 47.2101 18.011 48.1755 17.3936 49.4427C16.1586 51.9775 14.7417 55.7209 13.9701 60.6077C12.4065 70.5105 15.8386 82.9103 23.6996 93.5457C28.1252 99.5331 35.0875 104.146 42.1375 107.259C49.1863 110.37 56.4854 112.053 61.7048 112.053C67.3878 112.053 74.5268 110.512 80.7068 108.557C83.8082 107.576 86.6993 106.481 89.08 105.402C91.4282 104.338 93.3824 103.246 94.5279 102.243C96.5695 100.457 97.9994 98.8006 98.6742 97.151C99.3923 95.3957 99.2206 93.7328 98.2767 92.1596C97.2685 90.4792 95.6265 89.6973 93.6963 89.8423C91.8686 89.9796 89.839 90.9332 87.75 92.4999C85.9846 93.8239 83.2163 94.7786 80.0009 95.2639C76.8109 95.7454 73.3129 95.7449 70.19 95.2644C68.8943 95.0651 66.4568 94.2054 64.2553 93.059C63.1658 92.4917 62.1928 91.884 61.4806 91.297C60.7105 90.6623 60.4649 90.2294 60.4305 90.0575C60.3371 89.5904 60.3607 89.29 60.4372 89.0346C60.5207 88.7555 60.6972 88.43 61.0649 87.9497C61.3784 87.5403 61.7754 87.087 62.2923 86.4966C62.3941 86.3804 62.5005 86.2589 62.6119 86.1313C63.2749 85.3718 64.0708 84.4449 64.9867 83.2673C66.7285 81.0278 68.3206 78.7094 68.8533 76.4776C69.1289 75.3232 69.1361 74.1375 68.6981 72.9854C68.2611 71.836 67.4266 70.8399 66.2265 69.9827C64.2848 68.5958 61.8943 68.838 59.8054 69.7296C57.6969 70.6296 55.6385 72.2811 54.0397 74.1997C51.8966 76.7714 48.6015 77.5257 46.8018 77.5519C46.7595 77.5196 46.6731 77.4429 46.5446 77.2755C46.2756 76.9254 45.9839 76.382 45.6948 75.6936C45.3196 74.8002 44.9948 73.7753 44.7479 72.8597C44.8244 72.8482 44.9027 72.8363 44.9825 72.8238C45.8735 72.6849 47.0376 72.4716 47.8953 72.1858C48.0918 72.1203 48.3429 72.0517 48.6403 71.9704C50.3718 71.4975 53.6714 70.5962 56.8839 67.3838C58.9364 65.3312 60.0018 61.7827 60.4832 58.4207C60.9727 55.0023 60.9054 51.4316 60.4305 49.0575C60.0734 47.2717 58.8013 46.1673 57.2756 45.4281C55.7808 44.7039 53.839 44.2277 51.7647 43.7783C49.8157 43.356 46.4877 42.9763 42.9769 42.825C40.0704 42.6998 36.9574 42.7274 34.3335 43.0393ZM31.9549 38.3026C31.9549 39.878 31.9044 41.4076 31.8537 42.5456L31.9549 38.3026ZM31.8537 42.5456C31.8283 43.1139 31.803 43.5829 31.7841 43.9092L31.8537 42.5456ZM31.7841 43.9092C31.7746 44.0723 31.7668 44.1996 31.7613 44.2856L31.7841 43.9092ZM31.7613 44.2856L31.755 44.3831L31.7613 44.2856ZM31.755 44.3831L31.7534 44.4074L31.755 44.3831ZM31.7534 44.4074L31.753 44.4132L31.7534 44.4074ZM31.753 44.4132L31.7529 44.4145L31.753 44.4132Z" fill="#E2993C"/>
<path fill-rule="evenodd" clip-rule="evenodd" d="M38.5955 49.1293C38.7339 48.453 39.3944 48.0169 40.0707 48.1553L44.4521 49.0519C44.9392 49.1515 45.3209 49.5304 45.4242 50.0167C45.5275 50.503 45.3328 51.0043 44.9284 51.2934L41.4529 53.7776C40.8913 54.179 40.1105 54.0492 39.7091 53.4875C39.3076 52.9259 39.4375 52.1452 39.9991 51.7437L41.1426 50.9264L39.5695 50.6045C38.8932 50.4661 38.4571 49.8056 38.5955 49.1293Z" fill="#3E1E09"/>
<path d="M31.0847 43.9555C31.1633 43.5855 31.2049 43.1995 31.2049 42.8028C31.7048 39.3027 29.7048 35.3028 26.2049 35.8028C21.705 36.3028 20.2048 39.8028 21.7048 42.8028C22.1993 43.7917 22.6961 44.7807 23.2698 45.6149C24.7337 44.502 26.8506 43.8028 29.2049 43.8028C29.8524 43.8028 30.4819 43.8557 31.0847 43.9555Z" fill="#BF7618"/>
<path d="M39.7046 57.8023C42.7046 57.3023 44.6842 58.9986 48.2067 59.3023C50.5 59.5 53.6388 58.5724 55 57C57.2643 54.3843 58.6598 50.3943 58.9998 48.9996C61.4999 45.9996 61 57.5 60.4999 59.9997C60.2645 61.1764 58.9998 66.8997 54.4999 70.4997C51.9999 72.4998 48 74 43 73.5C39.9737 73.1974 36.2949 71.6971 34.4998 67.9997C32.0099 62.8713 36.7046 58.3023 39.7046 57.8023Z" fill="#EBDEC3"/>
<ellipse cx="58.7439" cy="47.7474" rx="3" ry="4" transform="rotate(28.3368 58.7439 47.7474)" fill="#2A180E"/>
<ellipse cx="37.2874" cy="62.2979" rx="5" ry="4" transform="rotate(-20.4538 37.2874 62.2979)" fill="#F8AD96"/>
</svg>
