<svg width="120" height="120" viewBox="0 0 120 120" fill="none" xmlns="http://www.w3.org/2000/svg">
<rect width="120" height="120" fill="#F1F1F1"/>
<path d="M43.8999 51.1499H74.4999V63.9209C74.4999 71.7801 69.6869 78.8373 62.3703 81.7066C60.3322 82.5058 58.0676 82.5058 56.0295 81.7066C48.7129 78.8373 43.8999 71.7801 43.8999 63.9209V51.1499Z" fill="#D9D9D9"/>
<path d="M60.3091 82.2795C62.696 80.4769 66.4947 76.9002 67.6001 71.7749C68.9913 65.3249 68.6764 54.4142 68.5433 51.1499H74.5001V64.9469C74.5001 72.1872 70.0661 78.6887 63.3257 81.332L62.1208 81.8045C61.5331 82.035 60.9249 82.1933 60.3091 82.2795Z" fill="#D0D0D0"/>
<rect opacity="0.5" x="43.8999" y="56.25" width="30.6" height="3.9" fill="#C5C5C5"/>
<path d="M57.5999 38.3999H60.7999V43.1999H57.5999V38.3999Z" fill="#B6B6B6"/>
<path d="M40.9164 51.9998C41.6138 47.1682 45.4812 43.4143 50.3315 42.8612L56.9339 42.1083C58.4397 41.9366 59.9602 41.9366 61.466 42.1083L69.1138 42.9804C73.3481 43.4633 76.7243 46.7404 77.3331 50.9584C77.8959 54.8576 74.8715 58.3499 70.9319 58.3499H46.4158C43.0313 58.3499 40.433 55.3497 40.9164 51.9998Z" fill="#B6B6B6"/>
<path d="M67.3321 58.35H72.436C75.6403 58.35 78.1545 55.6012 77.8693 52.4096C77.422 47.4032 73.5038 43.4082 68.507 42.8639L61.4167 42.0914C61.2603 42.0744 61.1039 42.0592 60.9473 42.0459L61.5846 42.141C67.7501 43.0613 72.0352 48.7603 71.2072 54.9389C70.9465 56.8842 69.2923 58.3383 67.3321 58.35Z" fill="#A8A8A8"/>
<ellipse cx="51.5792" cy="65.8001" rx="1.27941" ry="1.45" fill="#777777"/>
<ellipse cx="63.5206" cy="65.8001" rx="1.27941" ry="1.45" fill="#777777"/>
<path fill-rule="evenodd" clip-rule="evenodd" d="M51.8749 70.019C52.0415 69.8524 52.3115 69.8524 52.478 70.019C53.6662 71.2071 55.1643 71.8558 57.4647 71.8558C58.9 71.8558 60.9256 71.2035 62.1102 70.019C62.2768 69.8524 62.5468 69.8524 62.7133 70.019C62.8799 70.1855 62.8799 70.4555 62.7133 70.6221C61.3391 71.9963 59.0804 72.7088 57.4647 72.7088C54.9721 72.7088 53.2456 71.9927 51.8749 70.6221C51.7084 70.4555 51.7084 70.1855 51.8749 70.019Z" fill="#777777"/>
<ellipse cx="49.6002" cy="68.7999" rx="2.4" ry="1.6" fill="#EDEDED"/>
<ellipse cx="65.6002" cy="68.7999" rx="2.4" ry="1.6" fill="#EDEDED"/>
</svg>
