<svg width="80" height="80" viewBox="0 0 80 80" fill="none" xmlns="http://www.w3.org/2000/svg">
<path d="M19.875 28.9375H58.125V46.1838C58.125 55.2341 52.5825 63.361 44.1569 66.6652L42.6509 67.2558C40.304 68.1761 37.696 68.1761 35.3491 67.2558L33.8431 66.6652C25.4175 63.361 19.875 55.2341 19.875 46.1838V28.9375Z" fill="#E3993B"/>
<path d="M40.3862 67.8495C43.3699 65.5963 48.1182 61.1254 49.5 54.7188C51.239 46.6563 50.8453 33.0179 50.679 28.9375H58.125V46.1838C58.125 55.2341 52.5826 63.361 44.157 66.6652L42.6509 67.2558C41.9162 67.5439 41.156 67.7418 40.3862 67.8495Z" fill="#D6884A"/>
<rect opacity="0.5" x="19.875" y="35.3125" width="38.25" height="4.875" fill="#8D653D"/>
<path d="M36.9999 13H40.9999V19H36.9999V13Z" fill="#4B2C16"/>
<path d="M16.1456 29.9999C17.0172 23.9604 21.8516 19.268 27.9143 18.5766L36.1674 17.6355C38.0497 17.4209 39.9502 17.4209 41.8324 17.6355L51.3923 18.7257C56.6851 19.3292 60.9054 23.4257 61.6664 28.6981C62.3699 33.5721 58.5893 37.9375 53.6648 37.9375H23.0198C18.7891 37.9375 15.5412 34.1872 16.1456 29.9999Z" fill="#4B2C16"/>
<path d="M49.1651 37.9377H55.545C59.5504 37.9377 62.6931 34.5017 62.3366 30.5122C61.7775 24.2542 56.8797 19.2605 50.6338 18.5801L41.7708 17.6145C41.5754 17.5933 41.3798 17.5743 41.1841 17.5576L41.9808 17.6765C49.6877 18.8268 55.044 25.9507 54.009 33.6739C53.6831 36.1054 51.6153 37.9232 49.1651 37.9377Z" fill="#361D0B"/>
<ellipse cx="29.4743" cy="47.25" rx="1.59926" ry="1.8125" fill="#2A180E"/>
<ellipse cx="44.4008" cy="47.25" rx="1.59926" ry="1.8125" fill="#2A180E"/>
<path fill-rule="evenodd" clip-rule="evenodd" d="M32.4977 54.6971C32.2187 54.8276 31.9522 54.9523 31.6936 55.061C31.439 55.1679 31.1459 55.0483 31.0389 54.7937C30.932 54.5391 31.0516 54.246 31.3062 54.139C31.5212 54.0487 31.7568 53.9378 32.0141 53.8166C33.1867 53.2645 34.8105 52.5 36.9999 52.5C39.6531 52.5 41.2166 53.5429 42.6973 54.5306C42.724 54.5484 42.7506 54.5662 42.7772 54.584C43.007 54.7372 43.0691 55.0476 42.9159 55.2774C42.7627 55.5071 42.4523 55.5692 42.2225 55.416L42.1721 55.3824C40.6967 54.3986 39.3491 53.5 36.9999 53.5C35.0562 53.5 33.6675 54.1497 32.4977 54.6971Z" fill="black"/>
<path d="M49.21 52.592C49.6914 53.8566 49.0355 55.2799 47.7452 55.7711C46.4548 56.2623 45.0185 55.6353 44.5371 54.3708C44.0558 53.1062 45.2549 49.229 45.2549 49.229C45.2549 49.229 48.7287 51.3274 49.21 52.592Z" fill="#95D7FF"/>
</svg>
